<svg width="0" height="0" class="hidden">
  <symbol fill="none" xmlns="http://www.w3.org/2000/svg" viewBox="0 0 170 92" id="Client 6">
    <rect x=".5" y=".5" width="169" height="91" rx="3.5" stroke="#AFB1B8"></rect>
    <path d="M85.425 43.408a2.947 2.947 0 01-.605-1.988v-2.884c0-.883.2-1.555.602-2.015.4-.46 1.089-.688 2.065-.686.917 0 1.569.196 1.954.587.42.499.624 1.109.577 1.724v.678h-1.64v-.686c.005-.225-.01-.45-.048-.672a.65.65 0 00-.235-.399.95.95 0 00-.594-.156 1.005 1.005 0 00-.625.165.768.768 0 00-.272.44 3.332 3.332 0 00-.065.712v3.5c-.026.337.047.675.21.982a.77.77 0 00.328.238.9.9 0 00.424.056.893.893 0 00.58-.159.704.704 0 00.245-.425c.039-.232.056-.467.051-.701v-.71h1.641v.648a2.64 2.64 0 01-.567 1.813c-.377.428-1.02.642-1.964.642s-1.658-.229-2.062-.704zm6.832.03c-.415-.45-.622-1.103-.622-1.969v-3.032c0-.857.207-1.505.622-1.945.414-.44 1.107-.659 2.079-.657.965 0 1.654.22 2.069.657.414.44.625 1.088.625 1.945v3.032c0 .857-.21 1.514-.632 1.966-.421.451-1.107.677-2.062.677-.955 0-1.661-.229-2.08-.674zm2.843-.728c.149-.28.216-.589.197-.897v-3.714a1.65 1.65 0 00-.193-.88.776.776 0 00-.335-.241.907.907 0 00-.433-.052.918.918 0 00-.434.052.786.786 0 00-.337.241 1.61 1.61 0 00-.197.88v3.731c-.02.309.047.617.197.898.095.094.213.17.346.222a1.158 1.158 0 00.843 0c.133-.052.25-.128.346-.222v-.018zm3.904-6.786h1.766l1.328 5.595 1.359-5.595h1.719L105.35 44h-1.271l-.136-5.613L102.632 44h-1.019l-1.359-5.633-.126 5.633h-1.284l.16-8.076zm8.326 0h2.752c1.585 0 2.378.764 2.378 2.293 0 1.464-.835 2.196-2.504 2.194h-.937V44h-1.699l.01-8.077zm2.351 3.451c.168.019.338.005.5-.039.161-.044.309-.117.434-.216.195-.273.281-.593.245-.912a2.526 2.526 0 00-.082-.733.582.582 0 00-.125-.222.7.7 0 00-.214-.162 1.762 1.762 0 00-.758-.13h-.659v2.414h.659zm5.228-3.451h1.825L118.606 44h-1.584l-.37-1.862h-1.627L114.644 44h-1.606l1.871-8.076zm1.56 5.279l-.636-3.39-.635 3.39h1.271zm3.648-5.279h1.189l2.276 4.607v-4.607h1.41V44h-1.131l-2.29-4.81V44h-1.457l.003-8.076zm8.177 4.996l-1.892-4.985h1.594l1.155 3.203 1.083-3.203h1.56l-1.869 4.986V44h-1.631v-3.08zm-40.246 6.612v.422h-1.386v3.282h-.581v-3.282h-1.393v-.422h3.36zm4.345 3.704h-.449a.2.2 0 01-.126-.035.194.194 0 01-.074-.085l-.401-.88H89.42l-.4.88a.243.243 0 01-.062.1.208.208 0 01-.126.035h-.448l1.698-3.704h.592l1.719 3.69zm-2.813-1.375h1.603l-.68-1.508a2.699 2.699 0 01-.125-.349c-.024.07-.044.138-.064.197l-.062.155-.672 1.505zm5.741 1.011c.106.005.213.005.32 0 .091-.008.182-.023.271-.044.083-.017.165-.04.245-.067.075-.027.15-.059.227-.091v-.833h-.679a.137.137 0 01-.092-.03.086.086 0 01-.026-.03.074.074 0 01-.008-.037v-.284h1.318v1.42a2.578 2.578 0 01-.716.301c-.14.036-.281.061-.425.077a5.13 5.13 0 01-.496.023 2.59 2.59 0 01-.856-.138 2.09 2.09 0 01-.68-.387 1.79 1.79 0 01-.438-.587 1.851 1.851 0 01-.156-.768 1.92 1.92 0 01.153-.774c.097-.22.247-.42.438-.587.194-.167.425-.297.68-.384.29-.095.6-.142.91-.138.158 0 .316.01.472.032.138.02.274.051.404.094.12.038.233.088.34.147.104.057.203.122.296.193l-.163.229a.142.142 0 01-.055.05.17.17 0 01-.078.02.222.222 0 01-.105-.029 2.113 2.113 0 01-.167-.088 1.504 1.504 0 00-.227-.1 2.127 2.127 0 00-.313-.082 2.614 2.614 0 00-.431-.032 2.009 2.009 0 00-.656.103 1.43 1.43 0 00-.5.293 1.29 1.29 0 00-.315.46 1.732 1.732 0 000 1.235c.074.175.19.333.34.467.139.127.308.227.495.293.217.064.445.089.673.073zm5.415-.058h1.855v.422h-2.422v-3.704h.581l-.014 3.282zm3.785.422h-.581v-3.704h.581v3.704zm2.16-3.686a.28.28 0 01.089.067l2.483 2.792a.97.97 0 010-.132v-2.76h.506v3.72h-.292a.277.277 0 01-.126-.021.322.322 0 01-.091-.07l-2.48-2.79v2.88h-.486v-3.704h.302c.033 0 .065.006.095.017zm7.355-.018v.407h-2.058v1.223h1.668v.393h-1.668v1.264h2.058v.408h-2.656v-3.695h2.656zM53.162 24.655l25.795 6.324v22.158l-25.795-6.32V24.654zm-1.655-1.888v25.126l29.1 7.136V29.905l-29.1-7.138z" fill="#AFB1B8"></path>
    <path d="M67.104 66.692L38 59.551V34.427l29.104 7.139v25.126z" fill="#AFB1B8"></path>
    <path d="M51.99 24.371l25.458 6.244-10.826 9.35-25.463-6.247 10.83-9.347zm-.483-1.604L38 34.427l29.104 7.14 13.504-11.662-29.1-7.138zm17.234 42.512l11.867-10.247-11.867-2.913v13.16z" fill="#AFB1B8"></path>
  </symbol>
  <symbol fill="none" xmlns="http://www.w3.org/2000/svg" viewBox="0 0 170 92" id="Client 5">
    <rect x=".5" y=".5" width="169" height="91" rx="3.5" stroke="#AFB1B8"></rect>
    <path d="M58.757 60.735c.244.276.373.622.367.977a1.43 1.43 0 01-.131.676 1.558 1.558 0 01-.438.558 2.627 2.627 0 01-1.651.45H54v-6.19h2.844a2.593 2.593 0 011.576.41c.184.142.33.32.425.52.096.202.139.42.127.64.016.34-.1.677-.33.946a1.577 1.577 0 01-.866.484c.385.064.733.252.98.53zm-3.406-.934h1.216c.276.018.55-.055.773-.206a.738.738 0 00.207-.275.68.68 0 00.054-.33.702.702 0 00-.055-.329.759.759 0 00-.203-.276 1.255 1.255 0 00-.796-.209H55.35v1.625zm2.108 2.374a.777.777 0 00.224-.284.712.712 0 00.063-.345.722.722 0 00-.066-.35.788.788 0 00-.228-.285 1.338 1.338 0 00-.826-.224h-1.275v1.703h1.292c.29.015.578-.06.816-.215zm7.111 1.222l-1.581-2.42h-.595v2.42h-1.361v-6.191h2.577a2.699 2.699 0 011.793.526c.36.336.578.779.613 1.248a1.86 1.86 0 01-.421 1.314 2.148 2.148 0 01-1.229.629l1.685 2.474h-1.48zm-2.176-3.264h1.113c.773 0 1.16-.312 1.16-.937a.852.852 0 00-.063-.375.917.917 0 00-.221-.321 1.282 1.282 0 00-.876-.251h-1.126l.013 1.884zm9.616 2.017h-2.712l-.479 1.247h-1.427l2.49-6.122h1.543l2.481 6.122H72.48l-.469-1.246zm-.363-.937l-.991-2.613-.991 2.613h1.982zm9.675 2.184h-1.35l-3.03-4.21v4.21h-1.348v-6.192h1.348l3.03 4.235v-4.235h1.35v6.192zm7.711-1.482c-.28.467-.705.848-1.223 1.092a4.288 4.288 0 01-1.9.39h-2.404v-6.191h2.405a4.376 4.376 0 011.9.38c.516.24.943.616 1.222 1.08.278.504.423 1.06.423 1.625 0 .564-.145 1.12-.423 1.624zm-1.546-.148a2.16 2.16 0 00.597-1.478 2.16 2.16 0 00-.597-1.477 2.488 2.488 0 00-1.692-.527h-.938v4.008h.938a2.49 2.49 0 001.692-.526zm-14.631-39s17.439 6.028 17.069 14.751v14.754s-17.426-6.03-17.063-14.754l-.006-14.751zm32.604 26.051c3.294-2.075 7.103-3.36 11.08-3.738v-4.62c-4.582 1.618-8.469 4.55-11.08 8.358z" fill="#AFB1B8"></path>
    <path d="M103.482 50.21c2.695-4.97 7.368-8.805 13.058-10.717V26.185s-24.835 8.587-24.31 21.009V68.2s1.107-.384 2.848-1.104c0-.671 0-1.349.08-2.03.513-5.766 3.507-11.11 8.324-14.857z" fill="#AFB1B8"></path>
    <path d="M101.12 58.013c.13-1.457.421-2.898.869-4.301-3 3.235-4.816 7.25-5.193 11.479-.037.399-.057.798-.067 1.21a74.704 74.704 0 004.777-2.305 19.937 19.937 0 01-.386-6.083zm.987.076a19.041 19.041 0 00.308 5.508c6.785-3.718 14.409-9.462 14.115-16.403v-.605c-4.848.497-9.383 2.437-12.91 5.523a19.292 19.292 0 00-1.513 5.977z" fill="#AFB1B8"></path>
  </symbol>
  <symbol fill="none" xmlns="http://www.w3.org/2000/svg" viewBox="0 0 170 92" id="Client 4">
    <rect x=".5" y=".5" width="169" height="91" rx="3.5" stroke="#2196F3"></rect>
    <path d="M56.146 37.103h-.003c-2.398 0-4.342 1.727-4.342 3.858v.003c0 2.131 1.944 3.859 4.342 3.859h.003c2.398 0 4.342-1.728 4.342-3.859v-.002c0-2.132-1.944-3.86-4.342-3.86zm32.049-1.233c-.007-2.96-1.333-5.798-3.688-7.891-2.355-2.093-5.547-3.272-8.877-3.279-3.332.005-6.525 1.184-8.882 3.277-2.356 2.094-3.683 4.931-3.69 7.892v16.323s25.134-2.488 25.137-16.32v-.003zM43 57.55c.006 2.06.93 4.033 2.568 5.49 1.638 1.456 3.859 2.277 6.176 2.283 2.317-.006 4.537-.827 6.176-2.283 1.638-1.456 2.562-3.429 2.568-5.488V46.194S43 47.927 43 57.55zm8.744 2.034c-.453 0-.895-.119-1.272-.343a2.107 2.107 0 01-.843-.913 1.825 1.825 0 01-.13-1.175c.088-.395.306-.758.626-1.042.32-.285.728-.479 1.172-.557a2.558 2.558 0 011.324.115c.418.154.776.415 1.027.75.252.335.386.728.386 1.13a1.84 1.84 0 01-.172.782 2.036 2.036 0 01-.496.662c-.212.19-.465.34-.744.443a2.539 2.539 0 01-.878.156v-.008zm17.674-1.12H67.73v1.743h-.879V55.94h2.778v.712H67.73v1.102h1.688v.709zm4.224-.293c0 .42-.074.788-.222 1.104a1.68 1.68 0 01-.64.733 1.755 1.755 0 01-.948.258c-.354 0-.67-.085-.947-.255a1.695 1.695 0 01-.644-.727 2.511 2.511 0 01-.231-1.09v-.21c0-.42.075-.79.225-1.108.152-.32.366-.566.642-.735a1.76 1.76 0 01.949-.258c.355 0 .67.086.946.258.277.17.491.415.642.735.152.318.228.686.228 1.104v.19zm-.89-.194c0-.447-.08-.787-.24-1.02a.783.783 0 00-.686-.348.782.782 0 00-.683.346c-.16.229-.241.564-.243 1.008v.208c0 .435.08.773.24 1.013.16.24.39.36.692.36a.775.775 0 00.68-.345c.158-.232.238-.57.24-1.014v-.208zm3.74 1.11a.447.447 0 00-.175-.38c-.117-.09-.328-.184-.633-.281a4.575 4.575 0 01-.723-.293c-.485-.262-.727-.615-.727-1.058 0-.23.065-.436.193-.615.131-.182.318-.323.56-.425.244-.101.518-.152.82-.152.305 0 .576.055.815.167.238.11.423.264.553.466.133.2.2.43.2.685h-.88c0-.195-.06-.347-.184-.454-.123-.11-.296-.164-.518-.164-.215 0-.382.046-.501.138a.426.426 0 00-.179.357c0 .139.07.255.208.349.14.093.347.181.618.263.5.15.864.337 1.093.56.228.222.343.5.343.832 0 .369-.14.66-.42.87-.278.209-.654.314-1.127.314-.328 0-.627-.06-.897-.18a1.438 1.438 0 01-.618-.494 1.27 1.27 0 01-.21-.727h.881c0 .47.281.706.844.706.209 0 .372-.042.49-.126a.418.418 0 00.175-.357zm4.691-2.434h-1.306v3.554h-.88v-3.554H77.71v-.712h3.474v.712zm3.07 1.705h-1.687v1.143h1.98v.706h-2.859V55.94h2.854v.712h-1.975v1.017h1.688v.688zm2.388.287h-.7v1.562h-.879V55.94h1.585c.504 0 .893.113 1.166.337.274.225.41.542.41.952 0 .291-.063.535-.19.73a1.282 1.282 0 01-.571.463l.922 1.743v.04h-.943l-.8-1.56zm-.7-.712h.71c.22 0 .39-.055.512-.166a.607.607 0 00.181-.466c0-.202-.057-.36-.172-.475-.114-.115-.288-.173-.525-.173h-.706v1.28zm5.326.771v1.503h-.879V55.94h1.664c.32 0 .602.059.844.176.244.117.432.284.563.501.13.215.196.46.196.735 0 .418-.144.748-.43.99-.286.24-.681.361-1.187.361h-.77zm0-.712h.785c.233 0 .41-.055.53-.164.124-.11.185-.266.185-.469a.704.704 0 00-.184-.507c-.123-.128-.293-.195-.51-.199h-.806v1.34zm5.56.366H95.14v1.143h1.98v.706h-2.859V55.94h2.854v.712H95.14v1.017h1.688v.688zm4.079-1.705h-1.307v3.554h-.879v-3.554h-1.289v-.712h3.475v.712zm3.07 1.705h-1.687v1.143h1.98v.706h-2.859V55.94h2.853v.712h-1.974v1.017h1.687v.688zm2.388.287h-.7v1.562h-.879V55.94h1.585c.504 0 .892.113 1.166.337.273.225.41.542.41.952 0 .291-.063.535-.19.73a1.284 1.284 0 01-.572.463l.923 1.743v.04h-.943l-.8-1.56zm-.7-.712h.709c.22 0 .391-.055.512-.166a.607.607 0 00.182-.466c0-.202-.058-.36-.173-.475-.113-.115-.288-.173-.524-.173h-.706v1.28zm5.165 1.155a.448.448 0 00-.176-.381c-.117-.09-.328-.184-.633-.281a4.56 4.56 0 01-.723-.293c-.485-.262-.727-.615-.727-1.058 0-.23.064-.436.193-.615.131-.182.318-.323.56-.425.244-.101.518-.152.82-.152.305 0 .576.055.815.167.238.11.423.264.553.466.133.2.2.43.2.685h-.879c0-.195-.062-.347-.185-.454-.123-.11-.296-.164-.518-.164-.215 0-.382.046-.501.138a.424.424 0 00-.179.357c0 .139.069.255.208.349.141.093.347.181.618.263.5.15.864.337 1.093.56.228.222.343.5.343.832 0 .369-.14.66-.419.87-.28.209-.656.314-1.128.314-.328 0-.627-.06-.897-.18a1.444 1.444 0 01-.618-.494 1.268 1.268 0 01-.211-.727h.882c0 .47.281.706.844.706.209 0 .372-.042.489-.126a.419.419 0 00.176-.357z" fill="#2196F3"></path>
  </symbol>
  <symbol fill="none" xmlns="http://www.w3.org/2000/svg" viewBox="0 0 170 92" id="Client 3">
    <rect x=".5" y=".5" width="169" height="91" rx="3.5" stroke="#AFB1B8"></rect>
    <path d="M68.406 65.101c.016 0 .032.004.046.01a.121.121 0 01.039.024l.218.208c-.17.169-.379.304-.614.396a2.39 2.39 0 01-.87.142 2.3 2.3 0 01-.817-.133 1.794 1.794 0 01-.617-.374 1.674 1.674 0 01-.397-.578 1.926 1.926 0 01-.14-.742 1.724 1.724 0 01.573-1.322c.186-.163.409-.291.654-.377.269-.09.555-.135.843-.132a2.27 2.27 0 01.782.12c.216.082.415.195.587.335l-.183.222a.178.178 0 01-.047.04.125.125 0 01-.073.017.178.178 0 01-.08-.023l-.097-.06-.137-.076a1.548 1.548 0 00-.43-.132 1.891 1.891 0 00-.325-.024 1.76 1.76 0 00-.605.1 1.39 1.39 0 00-.475.28c-.136.128-.24.28-.308.445a1.5 1.5 0 00-.112.587 1.53 1.53 0 00.112.597c.067.164.17.314.303.443.125.12.28.215.453.275.178.064.369.097.561.095a2.46 2.46 0 00.333-.019 1.316 1.316 0 00.72-.306.171.171 0 01.103-.038zm6.298-1.047a1.81 1.81 0 01-.147.737 1.594 1.594 0 01-.41.572 1.889 1.889 0 01-.645.375 2.655 2.655 0 01-1.658 0 1.91 1.91 0 01-.64-.376 1.678 1.678 0 01-.415-.578 1.922 1.922 0 010-1.476c.093-.216.234-.413.415-.58.182-.159.4-.282.64-.363a2.61 2.61 0 011.658 0c.242.085.461.213.643.376.18.165.32.36.412.571.101.238.151.489.147.742zm-.572 0a1.566 1.566 0 00-.104-.593 1.22 1.22 0 00-.752-.722 1.918 1.918 0 00-1.205 0 1.295 1.295 0 00-.461.28 1.191 1.191 0 00-.295.443 1.737 1.737 0 000 1.184 1.209 1.209 0 00.756.72c.388.127.816.127 1.205 0 .175-.061.332-.156.46-.277.131-.129.23-.28.292-.443.073-.19.108-.391.104-.592zm4.869.621l.057.132c.022-.047.041-.09.063-.132a1.23 1.23 0 01.071-.13l1.393-2.201c.028-.038.052-.062.08-.069a.373.373 0 01.114-.012h.412v3.58h-.488V63.1a.938.938 0 010-.124L79.3 65.208a.203.203 0 01-.082.081.246.246 0 01-.12.03h-.079a.243.243 0 01-.12-.03.2.2 0 01-.081-.081l-1.443-2.246v2.873h-.471v-3.572h.411a.373.373 0 01.115.012c.034.015.06.039.076.069l1.423 2.203a.76.76 0 01.071.128zm5.243-.178v1.34H83.7v-3.574h1.216c.23-.004.458.023.679.078.176.044.34.12.48.223a.922.922 0 01.272.35c.065.146.096.302.093.458a.993.993 0 01-.395.815c-.14.107-.305.188-.483.236a2.3 2.3 0 01-.657.083l-.66-.01zm0-.384h.66c.143.002.286-.017.423-.054a.924.924 0 00.305-.154.686.686 0 00.25-.538.605.605 0 00-.054-.291.69.69 0 00-.19-.244 1.172 1.172 0 00-.734-.192h-.66v1.473zm7.329 1.729h-.43a.205.205 0 01-.12-.033.222.222 0 01-.072-.083l-.37-.864h-1.863l-.384.864a.205.205 0 01-.19.116h-.432l1.636-3.58h.567l1.658 3.58zm-2.7-1.329h1.538l-.648-1.457c-.05-.11-.09-.222-.123-.336l-.063.187c-.019.057-.04.11-.06.152l-.643 1.454zm5.056-2.233a.23.23 0 01.081.063l2.386 2.699v-2.779h.488v3.58h-.272a.265.265 0 01-.112-.022.299.299 0 01-.088-.066l-2.382-2.696a.974.974 0 010 .123v2.66h-.488v-3.58h.289c.033 0 .067.006.098.017zm6.974 2.139v1.421h-.545v-1.42l-1.508-2.156h.488a.197.197 0 01.117.03c.03.024.055.051.074.081l.943 1.391c.038.06.071.114.098.166.028.052.049.102.069.151l.07-.154c.027-.056.058-.11.093-.163l.93-1.4a.35.35 0 01.071-.076.181.181 0 01.117-.035h.493l-1.51 2.165zm-22.172-8.163c.238.026.478.047.72.066 3.679-1.43 6.791-3.77 8.948-6.728 2.156-2.958 3.261-6.403 3.177-9.904l-4.054-3.522c.824 3.727.438 7.58-1.114 11.128-1.553 3.548-4.21 6.65-7.677 8.96z" fill="#AFB1B8"></path>
    <path d="M77.284 56.092l.109.02c3.704-2.303 6.528-5.517 8.106-9.228 1.579-3.711 1.84-7.749.75-11.59l-5.775-5.017c2.335 4.124 3.275 8.74 2.71 13.31-.564 4.57-2.61 8.906-5.9 12.505zm19.584-12.265c-.981 3.846-3.364 7.315-6.794 9.892a21.629 21.629 0 01-3.229 2.013c2.794-.713 5.361-1.974 7.505-3.686s3.807-3.829 4.86-6.187l-2.342-2.032z" fill="#AFB1B8"></path>
    <path d="M95.949 43.26l-3.334-2.897c-.064 3.303-1.145 6.531-3.13 9.348-1.986 2.818-4.804 5.122-8.16 6.673h.016c.748 0 1.495-.04 2.238-.116 3.137-1.113 5.909-2.883 8.067-5.153 2.159-2.27 3.637-4.968 4.303-7.855zm-18.183-15.1l-3.978-3.46c-3.556 1.194-6.614 3.293-8.775 6.022-2.16 2.73-3.322 5.962-3.333 9.274.013 3.66 1.431 7.212 4.03 10.093 2.597 2.88 6.227 4.927 10.314 5.814 3.648-3.862 5.784-8.634 6.098-13.623.313-4.99-1.213-9.935-4.356-14.12zm27.374 14.567c-.014-4.342-2.006-8.503-5.54-11.574-3.534-3.07-8.324-4.801-13.322-4.813a21.18 21.18 0 00-6.753 1.091l24.355 21.162a14.358 14.358 0 001.26-5.866z" fill="#AFB1B8"></path>
  </symbol>
  <symbol fill="none" xmlns="http://www.w3.org/2000/svg" viewBox="0 0 170 92" id="Client 2">
    <rect x=".5" y=".5" width="169" height="91" rx="3.5" stroke="#AFB1B8"></rect>
    <path fill-rule="evenodd" clip-rule="evenodd" d="M82.114 21.934h-.137a17.43 17.43 0 00-.63-.022h-.455c-.397 0-.802.01-1.204.03a.628.628 0 00-.091 0 28.276 28.276 0 00-10.516 2.683l-.433.208v22.142l1.012-.344c.888-.305 1.834-.58 2.813-.834a34.329 34.329 0 018.095-1.075v2.909a23.25 23.25 0 00-1.065.03h-.084a32.36 32.36 0 00-6.228.956 31.635 31.635 0 00-7.42 2.892V23.112a29.728 29.728 0 017.785-3.166A29.793 29.793 0 0180.892 19h.427c.511.013 1.01.036 1.478.071 1.233.087 2.456.282 3.655.582v2.864a22.638 22.638 0 00-3.541-.534l-.073-.006a8.726 8.726 0 00-.724-.043zm5.039 2.927c.635.049 1.292.072 1.958.072a31.468 31.468 0 007.713-.99 31.767 31.767 0 007.417-2.893v27.89a29.809 29.809 0 01-7.786 3.166 29.943 29.943 0 01-7.337.944 22.405 22.405 0 01-5.565-.656V24.322c.43.1.873.191 1.323.267.739.125 1.518.216 2.277.272zm14.194.216l-1.012.341a44.2 44.2 0 01-2.813.842 34.263 34.263 0 01-8.406 1.078c-.66 0-1.267-.018-1.854-.056l-.807-.053v22.777l.693.06c.642.057 1.305.085 1.973.085a26.884 26.884 0 006.62-.857 27.746 27.746 0 005.173-1.86l.433-.208V25.078z" fill="#AFB1B8"></path>
    <path d="M67.737 61.212a1.491 1.491 0 00-1.126-.455 1.672 1.672 0 00-.65.122 1.464 1.464 0 00-.832.842c-.08.2-.119.413-.116.628v3.794c-.01.267.042.533.149.778.09.195.219.368.38.509.151.127.329.22.52.27.185.051.376.078.567.078.211.002.42-.043.612-.132a1.6 1.6 0 00.96-1.465v-.424h-.993v.338a.88.88 0 01-.058.338.608.608 0 01-.144.214.697.697 0 01-.415.145.503.503 0 01-.465-.204.898.898 0 01-.132-.508v-3.538c-.006-.196.036-.39.122-.567a.507.507 0 01.485-.229.527.527 0 01.443.214.806.806 0 01.164.509v.328h.982v-.387a1.79 1.79 0 00-.121-.664 1.56 1.56 0 00-.332-.534zm5.892-.042a1.765 1.765 0 00-1.128-.418c-.202 0-.403.037-.592.107A1.56 1.56 0 0071 61.7c-.1.231-.15.482-.145.735v3.638c-.006.256.043.51.145.746.09.195.22.369.384.508.152.14.33.25.524.32.19.07.39.106.592.107a1.714 1.714 0 001.128-.427c.158-.142.285-.315.374-.508.102-.235.151-.49.144-.746v-3.639a1.77 1.77 0 00-.144-.734 1.641 1.641 0 00-.374-.532zm-.463 4.904a.656.656 0 01-.197.527.727.727 0 01-.934 0 .65.65 0 01-.197-.527v-3.639a.653.653 0 01.197-.526.726.726 0 01.934 0 .652.652 0 01.197.526v3.64zm8.201 1.626v-6.89h-.953l-1.253 3.647h-.017l-1.263-3.646h-.943v6.888h.984v-4.19h.017l.964 2.962h.491l.971-2.962h.018v4.19h.984zm5.591-6.406c-.151-.17-.343-.3-.556-.377a2.184 2.184 0 00-.714-.107h-1.462v6.89h.981v-2.691h.506a1.8 1.8 0 00.886-.188 1.43 1.43 0 00.539-.527c.113-.183.19-.387.225-.6a4.9 4.9 0 00.053-.783c.01-.33-.023-.662-.096-.984a1.466 1.466 0 00-.362-.633zm-.506 2.1a.867.867 0 01-.091.359.552.552 0 01-.253.241 1.006 1.006 0 01-.463.087h-.448v-2.342h.506a.942.942 0 01.443.086.556.556 0 01.23.254 1 1 0 01.086.384v.458c0 .16.01.326 0 .473h-.01zm5.156-2.584h-.805l-1.518 6.89h.982l.288-1.48h1.338l.289 1.48h.981l-1.555-6.89zm-.906 4.471l.483-2.497h.018l.48 2.497h-.981zm7.248-.321h-.018l-1.482-4.15h-.944v6.89h.981v-4.143h.02l1.5 4.142h.924v-6.888h-.981v4.15zm5.998-4.15l-.79 2.74h-.02l-.789-2.74h-1.04l1.348 3.978v2.911h.982v-2.911l1.348-3.977h-1.039zM65 69.644h.473v1.328h.321v-1.328h.47v-.272H65v.272zm3.977-.272l-.62 1.6h.341l.132-.364h.638l.136.364h.35l-.636-1.6h-.341zm-.05.967l.217-.593.217.593h-.435zm3.981.043h.37v.206a.613.613 0 01-.38.135.404.404 0 01-.34-.153.67.67 0 01-.118-.417c0-.356.154-.534.46-.534a.337.337 0 01.362.255l.316-.061c-.068-.313-.293-.47-.678-.47a.804.804 0 00-.559.205.78.78 0 00-.23.615.872.872 0 00.205.6.776.776 0 00.607.234.96.96 0 00.678-.254v-.63h-.693v.27zm4.015-1.01h-.324v1.6h1.12V70.7h-.796v-1.328zm3.394 0h-.323v1.6h.323v-1.6zm3.319 1.068l-.655-1.068h-.313v1.6h.3v-1.045l.643 1.045h.322v-1.6h-.297v1.069zm3.001-.173h.797v-.272h-.797v-.35h.857v-.273h-1.181v1.6h1.214V70.7h-.89v-.433zm7.275-.264h-.63v-.63h-.32v1.599h.32v-.7h.63v.7h.322v-1.6h-.322v.631zm3.018.264h.8v-.272h-.8v-.35h.86v-.273h-1.18v1.6h1.212V70.7h-.89v-.433zm4.093.001c.279-.044.42-.191.42-.445a.38.38 0 00-.157-.356.903.903 0 00-.468-.094h-.678v1.599h.322v-.669h.063a.433.433 0 01.2.036.336.336 0 01.114.117l.349.508h.384l-.195-.312a1.11 1.11 0 00-.354-.384zm-.324-.222h-.237v-.401h.253a.838.838 0 01.326.038.212.212 0 01.046.255.213.213 0 01-.061.07.915.915 0 01-.327.038zm3.411.221h.796v-.272h-.796v-.35h.86v-.273h-1.184v1.6H105V70.7h-.89v-.433z" fill="#AFB1B8"></path>
  </symbol>
  <symbol fill="none" xmlns="http://www.w3.org/2000/svg" viewBox="0 0 170 92" id="Client 1">
    <rect x=".5" y=".5" width="169" height="91" rx="3.5" stroke="#AFB1B8"></rect>
    <path fill-rule="evenodd" clip-rule="evenodd" d="M70 23l7.008 6.634L64 29.626v32.188h34V49.507l7 6.627V23H70zm27.692 25.728l-19.87-18.81h19.87v18.81zm-6.169 8.377H69.38V35.459h1.565V55.64h20.578v1.465zM74.61 66.1l-.818 1.685-.818-1.685h-.686l1.194 2.246v1.309h.62v-1.309l1.192-2.246h-.684zm1.028 3.555l.288-.828h1.377l.29.828h.645L76.893 66.1h-.555l-1.342 3.555h.642zm.976-2.8l.515 1.474h-1.03l.515-1.475zm3.257 1.389a.807.807 0 00-.134.451c0 .3.105.543.315.73.211.186.493.279.844.279.352 0 .655-.096.909-.286l.2.237h.688l-.522-.618c.205-.28.308-.639.308-1.076h-.516c0 .239-.05.456-.148.651l-.687-.81.242-.176a1.34 1.34 0 00.369-.371.785.785 0 00.112-.41.732.732 0 00-.249-.564.895.895 0 00-.635-.23c-.286 0-.514.082-.683.244-.17.162-.254.381-.254.66 0 .114.027.232.08.354.056.122.153.27.29.444-.263.189-.44.352-.529.49zm1.604.786a.905.905 0 01-.561.2.585.585 0 01-.425-.154.533.533 0 01-.159-.4c0-.19.098-.36.293-.508l.076-.054.776.916zm-.637-1.575c-.168-.207-.252-.378-.252-.515 0-.119.035-.217.103-.295a.348.348 0 01.276-.118.37.37 0 01.266.1c.07.066.105.144.105.237a.44.44 0 01-.151.344l-.076.062-.271.185zm5.786 1.931c.244-.213.384-.51.42-.888h-.615c-.033.254-.11.435-.232.544-.122.11-.305.164-.547.164-.265 0-.467-.101-.606-.303-.136-.202-.205-.495-.205-.88v-.314c.004-.38.077-.666.22-.862.145-.197.352-.295.62-.295.231 0 .406.057.525.17.12.113.195.297.225.552h.615c-.04-.389-.178-.69-.418-.903-.239-.213-.555-.32-.947-.32-.291 0-.548.07-.771.208a1.346 1.346 0 00-.51.59 2.082 2.082 0 00-.179.887v.332c.005.327.066.614.183.862.118.247.284.438.498.573.217.134.467.2.75.2.405 0 .73-.105.974-.317zm3.63-.498c.12-.263.181-.57.181-.918v-.197a2.149 2.149 0 00-.185-.911 1.356 1.356 0 00-.52-.6 1.42 1.42 0 00-.77-.21c-.29 0-.546.07-.771.212-.223.14-.396.342-.52.608a2.174 2.174 0 00-.183.918v.2c.002.34.063.64.185.9.124.261.298.462.523.604.226.14.483.21.771.21.292 0 .549-.07.772-.21.224-.142.397-.344.517-.606zm-.661-2.01c.15.21.224.513.224.907v.185c0 .4-.074.705-.222.913-.146.209-.356.313-.63.313a.738.738 0 01-.634-.32c-.152-.213-.227-.515-.227-.906v-.205c.003-.382.08-.678.229-.886a.731.731 0 01.628-.315c.273 0 .484.105.632.315z" fill="#AFB1B8"></path>
  </symbol>
  <symbol fill="none" xmlns="http://www.w3.org/2000/svg" viewBox="0 0 44 44" id="in">
    <path d="M44 22a21.931 21.931 0 01-6.444 15.556A21.931 21.931 0 0122 44a21.931 21.931 0 01-15.556-6.444A21.931 21.931 0 010 22 21.931 21.931 0 016.444 6.444 21.931 21.931 0 0122 0a21.931 21.931 0 0115.556 6.444A21.931 21.931 0 0144 22z" fill="#fff"></path>
    <g clip-path="url(#clip0)" fill="#AFB1B8">
      <path d="M31.995 32H32v-7.336c0-3.588-.772-6.352-4.967-6.352-2.017 0-3.37 1.106-3.923 2.155h-.058v-1.82h-3.978v13.352h4.142v-6.611c0-1.741.33-3.425 2.486-3.425 2.124 0 2.156 1.987 2.156 3.536V32h4.137zM12.33 18.648h4.147V32H12.33V18.648zM14.402 12A2.402 2.402 0 0012 14.402c0 1.325 1.076 2.424 2.402 2.424 1.325 0 2.401-1.099 2.401-2.424A2.403 2.403 0 0014.402 12z"></path>
    </g>
    <defs>
      <clipPath id="clip0">
        <path fill="#fff" transform="translate(12 12)" d="M0 0h20v20H0z"></path>
      </clipPath>
    </defs>
  </symbol>
  <symbol fill="none" xmlns="http://www.w3.org/2000/svg" viewBox="0 0 44 44" id="facebook">
    <path d="M44 22a21.931 21.931 0 01-6.444 15.556A21.931 21.931 0 0122 44a21.931 21.931 0 01-15.556-6.444A21.931 21.931 0 010 22 21.931 21.931 0 016.444 6.444 21.931 21.931 0 0122 0a21.931 21.931 0 0115.556 6.444A21.931 21.931 0 0144 22z" fill="#fff"></path>
    <g clip-path="url(#clip0)">
      <path d="M25.33 15.32h1.827v-3.18a23.588 23.588 0 00-2.66-.14c-2.633 0-4.436 1.656-4.436 4.7v2.8h-2.905v3.555h2.905V32h3.562v-8.944h2.787l.443-3.555h-3.231v-2.45c0-1.027.277-1.73 1.709-1.73z" fill="#AFB1B8"></path>
    </g>
    <defs>
      <clipPath id="clip0">
        <path fill="#fff" transform="translate(12 12)" d="M0 0h20v20H0z"></path>
      </clipPath>
    </defs>
  </symbol>
  <symbol fill="none" xmlns="http://www.w3.org/2000/svg" viewBox="0 0 44 44" id="twitter">
    <path d="M44 22a21.931 21.931 0 01-6.444 15.556A21.931 21.931 0 0122 44a21.931 21.931 0 01-15.556-6.444A21.931 21.931 0 010 22 21.931 21.931 0 016.444 6.444 21.931 21.931 0 0122 0a21.931 21.931 0 0115.556 6.444A21.931 21.931 0 0144 22z" fill="#fff"></path>
    <g clip-path="url(#clip0)">
      <path d="M32 15.799a8.55 8.55 0 01-2.363.647 4.076 4.076 0 001.804-2.266 8.191 8.191 0 01-2.6.992 4.099 4.099 0 00-7.093 2.804c0 .325.028.638.096.935-3.409-.166-6.425-1.8-8.452-4.289a4.128 4.128 0 00-.56 2.073c0 1.42.73 2.679 1.82 3.407a4.048 4.048 0 01-1.852-.505v.045a4.119 4.119 0 003.285 4.03 4.09 4.09 0 01-1.075.134 3.62 3.62 0 01-.776-.07c.531 1.624 2.039 2.818 3.831 2.857a8.238 8.238 0 01-5.084 1.748 7.67 7.67 0 01-.981-.056 11.543 11.543 0 006.29 1.84c7.545 0 11.67-6.25 11.67-11.668 0-.18-.006-.356-.015-.53A8.179 8.179 0 0032 15.8z" fill="#AFB1B8"></path>
    </g>
    <defs>
      <clipPath id="clip0">
        <path fill="#fff" transform="translate(12 12)" d="M0 0h20v20H0z"></path>
      </clipPath>
    </defs>
  </symbol>
  <symbol fill="none" xmlns="http://www.w3.org/2000/svg" viewBox="0 0 44 44" id="instagram">
    <path d="M44 22a21.931 21.931 0 01-6.444 15.556A21.931 21.931 0 0122 44a21.931 21.931 0 01-15.556-6.444A21.931 21.931 0 010 22 21.931 21.931 0 016.444 6.444 21.931 21.931 0 0122 0a21.931 21.931 0 0115.556 6.444A21.931 21.931 0 0144 22z" fill="#2196F3"></path>
    <g clip-path="url(#clip0)" fill="#fff">
      <path d="M31.98 17.88c-.046-1.063-.218-1.793-.464-2.426a4.881 4.881 0 00-1.157-1.774 4.922 4.922 0 00-1.77-1.153c-.637-.246-1.363-.418-2.426-.464-1.07-.051-1.41-.063-4.126-.063-2.715 0-3.055.012-4.122.059-1.063.046-1.793.219-2.426.465a4.879 4.879 0 00-1.774 1.156 4.923 4.923 0 00-1.152 1.77c-.247.637-.418 1.363-.465 2.426-.051 1.07-.063 1.41-.063 4.126 0 2.715.012 3.055.059 4.122.047 1.063.219 1.793.465 2.426a4.932 4.932 0 001.156 1.774 4.92 4.92 0 001.77 1.152c.637.247 1.364.419 2.426.465 1.067.047 1.407.059 4.122.059 2.716 0 3.055-.012 4.122-.059 1.063-.046 1.793-.218 2.426-.464a5.116 5.116 0 002.927-2.927c.246-.637.418-1.364.465-2.426.047-1.067.058-1.407.058-4.122s-.004-3.055-.05-4.122zm-1.8 8.166c-.044.977-.208 1.504-.344 1.855a3.318 3.318 0 01-1.9 1.9c-.35.136-.882.3-1.855.343-1.055.047-1.371.059-4.04.059-2.668 0-2.989-.012-4.04-.059-.977-.043-1.504-.207-1.856-.344a3.076 3.076 0 01-1.148-.746 3.109 3.109 0 01-.747-1.148c-.136-.352-.3-.883-.343-1.856-.047-1.055-.059-1.372-.059-4.04 0-2.669.012-2.99.059-4.04.043-.977.207-1.504.343-1.856a3.04 3.04 0 01.75-1.149 3.104 3.104 0 011.15-.746c.35-.136.882-.3 1.855-.344 1.055-.046 1.372-.058 4.04-.058 2.672 0 2.989.011 4.04.058.977.043 1.504.207 1.856.344.433.16.828.414 1.148.746.332.325.586.715.747 1.15.136.35.3.882.343 1.855.047 1.055.059 1.371.059 4.04 0 2.668-.012 2.98-.059 4.036z"></path>
      <path d="M22.037 16.864a5.139 5.139 0 105.138 5.138 5.139 5.139 0 00-5.138-5.138zm0 8.47a3.333 3.333 0 11.001-6.666 3.333 3.333 0 010 6.667zm6.541-8.673a1.2 1.2 0 11-2.4 0 1.2 1.2 0 012.4 0z"></path>
    </g>
    <defs>
      <clipPath id="clip0">
        <path fill="#fff" transform="translate(12 12)" d="M0 0h20v20H0z"></path>
      </clipPath>
    </defs>
  </symbol>
  <symbol fill="none" xmlns="http://www.w3.org/2000/svg" viewBox="0 0 70 70" id="astronaut 1">
    <g clip-path="url(#clip0)">
      <path d="M68.461 33.471C68.458 14.982 53.466-.004 34.975 0 16.485.004 1.5 14.996 1.504 33.486A33.479 33.479 0 0024.799 65.37c.133.042.27.063.41.063.263 0 .521-.071.748-.205.296-.175.516-.453.62-.78l8.454-26.797a4.184 4.184 0 10-1.837-7.95L22.025 18.53a1.395 1.395 0 00-1.972 1.973l11.163 11.176a4.104 4.104 0 001.173 5.051l-8.055 25.535C8.414 56.4.262 38.74 6.126 22.82 11.991 6.9 29.65-1.252 45.571 4.613c15.92 5.864 24.072 23.524 18.207 39.444A30.72 30.72 0 0147.455 61.5l-.87-4.1a1.394 1.394 0 00-2.294-.752l-8.393 7.494a1.394 1.394 0 00.505 2.372l10.716 3.42a1.394 1.394 0 001.791-1.619l-.855-4.022a33.37 33.37 0 0020.406-30.82zm-33.478-1.394a1.395 1.395 0 110 2.79 1.395 1.395 0 010-2.79zm4.594 32.515l4.778-4.262 1.319 6.213-6.097-1.951z" fill="#212121"></path>
      <path d="M33.588 6.967v2.79a1.395 1.395 0 102.79 0v-2.79a1.395 1.395 0 00-2.79 0zM8.479 32.077a1.395 1.395 0 000 2.79h2.79a1.395 1.395 0 100-2.79h-2.79zm53.008 2.79a1.395 1.395 0 100-2.79h-2.79a1.395 1.395 0 000 2.79h2.79z" fill="#2196F3"></path>
    </g>
    <defs>
      <clipPath id="clip0">
        <path fill="#fff" d="M0 0h70v70H0z"></path>
      </clipPath>
    </defs>
  </symbol>
  <symbol fill="none" xmlns="http://www.w3.org/2000/svg" viewBox="0 0 16 12" id="features2">
    <path d="M14.5 0h-13C.673 0 0 .673 0 1.5v9c0 .827.673 1.5 1.5 1.5h13c.827 0 1.5-.673 1.5-1.5v-9c0-.827-.673-1.5-1.5-1.5zm0 1c.068 0 .133.014.192.039L8 6.839l-6.692-5.8A.498.498 0 011.5 1h13zm0 10h-13a.5.5 0 01-.5-.5V2.095l6.672 5.783a.5.5 0 00.656 0L15 2.095V10.5a.5.5 0 01-.5.5z" fill="#2196F3"></path>
  </symbol>
 <symbol fill="none" xmlns="http://www.w3.org/2000/svg" viewBox="0 0 16 12" id="mail">
     <path d="M14.5 0h-13C.673 0 0 .673 0 1.5v9c0 .827.673 1.5 1.5 1.5h13c.827 0 1.5-.673 1.5-1.5v-9c0-.827-.673-1.5-1.5-1.5zm0 1c.068 0 .133.014.192.039L8 6.839l-6.692-5.8A.498.498 0 011.5 1h13zm0 10h-13a.5.5 0 01-.5-.5V2.095l6.672 5.783a.5.5 0 00.656 0L15 2.095V10.5a.5.5 0 01-.5.5z" fill="#2196F3"></path>
  </symbol>




<svg width="0" height="0" class="hidden">
  <symbol fill="none" xmlns="http://www.w3.org/2000/svg" viewBox="0 0 10 16" id="phone">
    <path d="M8.5 0h-7C.673 0 0 .673 0 1.5v13c0 .827.673 1.5 1.5 1.5h7c.827 0 1.5-.673 1.5-1.5v-13C10 .673 9.327 0 8.5 0zm-7 1h7a.5.5 0 01.5.5V12H1V1.5a.5.5 0 01.5-.5zm7 14h-7a.5.5 0 01-.5-.5V13h8v1.5a.5.5 0 01-.5.5z" fill="#757575"></path>
  </symbol>
  
  <symbol fill="none" xmlns="http://www.w3.org/2000/svg" viewBox="0 0 66 70" id="features1">
    <path d="M65.316 48.339l-18.47-18.605 2.05-10.097a4.655 4.655 0 001.66.319h.014a4.723 4.723 0 10-4.394-3.14l-10.85 1.325L17.628.35a1.166 1.166 0 00-.824-.35 1.17 1.17 0 00-.817.34L12.68 3.63a1.167 1.167 0 000 1.65l1.78 1.805a32.686 32.686 0 005.511 38.638c.094.09.202.161.32.213a6.77 6.77 0 00-.114 1.197v13.534h-14A5.84 5.84 0 00.342 66.5v2.333C.342 69.478.865 70 1.51 70h53.667c.644 0 1.166-.522 1.166-1.167V66.5a5.84 5.84 0 00-5.833-5.833h-14v-5.998c2.193.46 4.428.694 6.669.7a32.483 32.483 0 0015.4-3.901l1.79 1.8c.216.221.513.347.823.35.306-.002.6-.124.817-.34l3.308-3.29a1.167 1.167 0 000-1.65zM48.925 13.635a2.333 2.333 0 111.645 3.987h-.008a2.333 2.333 0 01-1.633-3.987h-.004zM46.178 21.3l-1.309 6.444-2.571-2.587 3.88-3.857zm-1.325-1.973l-4.2 4.176-3.25-3.267 7.45-.909zM50.509 63a3.5 3.5 0 013.5 3.5v1.167H2.676V66.5a3.5 3.5 0 013.5-3.5h44.333zm-16.333-4.667v2.334H22.509v-2.334h11.667zM22.509 56v-8.867c0-2.83 2.617-5.133 5.833-5.133 3.217 0 5.834 2.303 5.834 5.133V56H22.509zm14-3.71v-5.157c0-4.117-3.663-7.466-8.167-7.466a8.312 8.312 0 00-7.177 3.907A30.34 30.34 0 0116.18 8.82l40.692 40.925a30.233 30.233 0 01-20.363 2.544zm24.695-1.496l-1.644-1.653L16.792 6.116l-1.65-1.655 1.65-1.645L34.15 20.272c.008 0 .013.015.021.021l28.688 28.856-1.655 1.645z" fill="#212121"></path>
    <path d="M28.353 44.333h-.01a3.5 3.5 0 00-.011 7h.01a3.5 3.5 0 10.01-7zm.816 4.328a1.167 1.167 0 11-.827-1.994 1.166 1.166 0 01.817 1.993h.01z" fill="#2196F3"></path>
  </symbol>
<symbol fill="none" xmlns="http://www.w3.org/2000/svg" viewBox="0 0 70 70" id="features3">
    <g clip-path="url(#clip0)">
      <path d="M32.65 32.735h2.332V43.23H32.65V32.735zm9.328 4.665h2.332v5.83h-2.332V37.4zm-18.657 3.498h2.332v2.332h-2.332v-2.332zm-6.996-1.167h2.332v3.498h-2.332v-3.498z" fill="#2196F3"></path>
      <path d="M3.498 61.886h55.97a3.498 3.498 0 003.499-3.498v-4.664a3.498 3.498 0 00-3.498-3.498h-1.166v-29.08l6.623-6.274a3.518 3.518 0 10-1.633-1.668l-4.99 4.73v-2.69a3.498 3.498 0 00-3.498-3.498H8.162a3.498 3.498 0 00-3.498 3.498v34.982H3.498A3.498 3.498 0 000 53.724v4.664a3.498 3.498 0 003.498 3.498zM66.465 10.58a1.166 1.166 0 110 2.332 1.166 1.166 0 010-2.332zM6.996 15.244c0-.644.522-1.166 1.166-1.166h46.643c.644 0 1.166.522 1.166 1.166v4.897l-2.332 2.216v-4.78c0-.645-.523-1.167-1.167-1.167H10.495c-.644 0-1.167.522-1.167 1.166v29.152c0 .644.523 1.166 1.167 1.166h41.977c.645 0 1.167-.522 1.167-1.166V25.565l2.332-2.21v26.87H6.996v-34.98zm10.495 15.159a3.498 3.498 0 102.422 6.012l4.053 2.034a1.167 1.167 0 001.392-.268l8.616-9.694 8.47 6.347c.455.34 1.089.304 1.501-.086l7.361-6.973v17.787H11.661v-26.82h39.645v5.82l-8.25 7.813-8.54-6.403a1.167 1.167 0 00-1.572.157l-8.734 9.828-3.265-1.633c.023-.14.038-.281.044-.423a3.498 3.498 0 00-3.498-3.498zm1.166 3.498a1.166 1.166 0 11-2.332 0 1.166 1.166 0 012.332 0zm6.996 18.657h11.66v1.166c0 .644-.521 1.166-1.165 1.166h-9.329a1.166 1.166 0 01-1.166-1.166v-1.166zm-23.32 1.166c0-.644.521-1.166 1.165-1.166h19.823v1.166a3.498 3.498 0 003.498 3.498h9.329a3.498 3.498 0 003.498-3.498v-1.166h19.823c.644 0 1.166.522 1.166 1.166v4.664c0 .644-.522 1.166-1.166 1.166H3.499a1.166 1.166 0 01-1.167-1.166v-4.664z" fill="#212121"></path>
    </g>
    <defs>
      <clipPath id="clip0">
        <path fill="#fff" d="M0 0h70v70H0z"></path>
      </clipPath>
    </defs>
  </symbol>

</svg>